# xmcd CD database file
#
# Track frame offsets:
#	150
#	18263
#	35925
#	59056
#	79916
#	102028
#	124411
#	146274
#	165410
#	185647
#	205141
#	223671
#	242615
#	262535
#
# Disc length: 3772 seconds
#
# Revision: 9
# Processed by: cddbd v1.5.1PL0 Copyright (c) Steve Scherf et al.
# Submitted via: CDex 1.51
#
DISCID=c30eba0e
DTITLE=ポルノグラフィティ - THUMPχ
DYEAR=2005
DGENRE=JPop
TTITLE0=Ouch!!
TTITLE1=ネオメロドラマティック
TTITLE2=東京ランドスケープ
TTITLE3=We Love Us
TTITLE4=黄昏ロマンス
TTITLE5=Twilight,トワイライト
TTITLE6=ROLL
TTITLE7=シスター
TTITLE8=ドリーマー
TTITLE9=社員 on the beach
TTITLE10=プッシュプレイ
TTITLE11=うたかた
TTITLE12=何度も
TTITLE13=Let's go to the answer
EXTD=YEAR: 2005
EXTT0=
EXTT1=
EXTT2=
EXTT3=
EXTT4=
EXTT5=
EXTT6=
EXTT7=
EXTT8=
EXTT9=
EXTT10=
EXTT11=
EXTT12=
EXTT13=
PLAYORDER=
